<svg width="24" height="24" viewBox="0 0 24 24" fill="none" xmlns="http://www.w3.org/2000/svg">
<g clip-path="url(#clip0_253_286)">
<path d="M12 14C13.1046 14 14 13.1046 14 12C14 10.8954 13.1046 10 12 10C10.8954 10 10 10.8954 10 12C10 13.1046 10.8954 14 12 14Z" stroke="#292929" stroke-width="1.5" stroke-linecap="round" stroke-linejoin="round"/>
<path d="M16.9333 14C16.8446 14.2011 16.8181 14.4241 16.8573 14.6404C16.8965 14.8567 16.9996 15.0562 17.1533 15.2134L17.1933 15.2534C17.3173 15.3772 17.4157 15.5242 17.4828 15.6861C17.5499 15.848 17.5844 16.0215 17.5844 16.1967C17.5844 16.3719 17.5499 16.5454 17.4828 16.7073C17.4157 16.8691 17.3173 17.0162 17.1933 17.14C17.0695 17.264 16.9225 17.3623 16.7606 17.4294C16.5987 17.4965 16.4252 17.5311 16.25 17.5311C16.0748 17.5311 15.9013 17.4965 15.7394 17.4294C15.5776 17.3623 15.4305 17.264 15.3067 17.14L15.2667 17.1C15.1096 16.9463 14.91 16.8432 14.6937 16.804C14.4775 16.7648 14.2544 16.7913 14.0533 16.88C13.8562 16.9645 13.688 17.1049 13.5695 17.2837C13.4511 17.4626 13.3875 17.6722 13.3867 17.8867V18C13.3867 18.3536 13.2462 18.6928 12.9961 18.9428C12.7461 19.1929 12.407 19.3334 12.0533 19.3334C11.6997 19.3334 11.3606 19.1929 11.1105 18.9428C10.8605 18.6928 10.72 18.3536 10.72 18V17.94C10.7148 17.7194 10.6434 17.5054 10.515 17.3258C10.3866 17.1463 10.2072 17.0095 10 16.9334C9.79893 16.8446 9.57588 16.8181 9.35961 16.8574C9.14335 16.8966 8.94379 16.9997 8.78667 17.1534L8.74667 17.1934C8.62284 17.3173 8.47579 17.4157 8.31393 17.4828C8.15206 17.5499 7.97856 17.5844 7.80334 17.5844C7.62812 17.5844 7.45462 17.5499 7.29275 17.4828C7.13089 17.4157 6.98384 17.3173 6.86001 17.1934C6.73604 17.0695 6.63769 16.9225 6.57059 16.7606C6.50349 16.5987 6.46896 16.4252 6.46896 16.25C6.46896 16.0748 6.50349 15.9013 6.57059 15.7394C6.63769 15.5776 6.73604 15.4305 6.86001 15.3067L6.90001 15.2667C7.0537 15.1096 7.1568 14.91 7.19601 14.6937C7.23522 14.4775 7.20875 14.2544 7.12001 14.0534C7.0355 13.8562 6.89518 13.688 6.71632 13.5696C6.53746 13.4511 6.32786 13.3875 6.11334 13.3867H6.00001C5.64638 13.3867 5.30724 13.2462 5.0572 12.9962C4.80715 12.7461 4.66667 12.407 4.66667 12.0534C4.66667 11.6997 4.80715 11.3606 5.0572 11.1105C5.30724 10.8605 5.64638 10.72 6.00001 10.72H6.06001C6.28067 10.7149 6.49467 10.6434 6.6742 10.515C6.85373 10.3866 6.99048 10.2072 7.06667 10C7.15542 9.79894 7.18189 9.57589 7.14267 9.35963C7.10346 9.14336 7.00036 8.94381 6.84667 8.78669L6.80667 8.74669C6.6827 8.62286 6.58436 8.4758 6.51726 8.31394C6.45016 8.15208 6.41562 7.97857 6.41562 7.80335C6.41562 7.62813 6.45016 7.45463 6.51726 7.29277C6.58436 7.1309 6.6827 6.98385 6.80667 6.86002C6.9305 6.73605 7.07755 6.63771 7.23942 6.57061C7.40128 6.50351 7.57478 6.46897 7.75001 6.46897C7.92523 6.46897 8.09873 6.50351 8.26059 6.57061C8.42246 6.63771 8.56951 6.73605 8.69334 6.86002L8.73334 6.90002C8.89046 7.05371 9.09002 7.15681 9.30628 7.19602C9.52254 7.23524 9.74559 7.20876 9.94667 7.12002H10C10.1972 7.03551 10.3654 6.89519 10.4838 6.71633C10.6023 6.53747 10.6658 6.32788 10.6667 6.11335V6.00002C10.6667 5.6464 10.8071 5.30726 11.0572 5.05721C11.3072 4.80716 11.6464 4.66669 12 4.66669C12.3536 4.66669 12.6928 4.80716 12.9428 5.05721C13.1929 5.30726 13.3333 5.6464 13.3333 6.00002V6.06002C13.3342 6.27454 13.3978 6.48414 13.5162 6.663C13.6347 6.84186 13.8028 6.98218 14 7.06669C14.2011 7.15543 14.4241 7.1819 14.6404 7.14269C14.8567 7.10348 15.0562 7.00038 15.2133 6.84669L15.2533 6.80669C15.3772 6.68272 15.5242 6.58437 15.6861 6.51727C15.8479 6.45018 16.0215 6.41564 16.1967 6.41564C16.3719 6.41564 16.5454 6.45018 16.7073 6.51727C16.8691 6.58437 17.0162 6.68272 17.14 6.80669C17.264 6.93052 17.3623 7.07757 17.4294 7.23943C17.4965 7.4013 17.5311 7.5748 17.5311 7.75002C17.5311 7.92524 17.4965 8.09874 17.4294 8.26061C17.3623 8.42247 17.264 8.56952 17.14 8.69335L17.1 8.73335C16.9463 8.89047 16.8432 9.09003 16.804 9.30629C16.7648 9.52256 16.7913 9.74561 16.88 9.94669V10C16.9645 10.1972 17.1048 10.3654 17.2837 10.4838C17.4626 10.6023 17.6721 10.6658 17.8867 10.6667H18C18.3536 10.6667 18.6928 10.8072 18.9428 11.0572C19.1929 11.3073 19.3333 11.6464 19.3333 12C19.3333 12.3536 19.1929 12.6928 18.9428 12.9428C18.6928 13.1929 18.3536 13.3334 18 13.3334H17.94C17.7255 13.3342 17.5159 13.3978 17.337 13.5162C17.1582 13.6347 17.0178 13.8028 16.9333 14Z" stroke="#292929" stroke-width="1.5" stroke-linecap="round" stroke-linejoin="round"/>
</g>
<defs>
<clipPath id="clip0_253_286">
<rect width="16" height="16" fill="white" transform="translate(4 4)"/>
</clipPath>
</defs>
</svg>
