<svg width="36" height="37" viewBox="0 0 36 37" fill="none" xmlns="http://www.w3.org/2000/svg">
<rect y="0.5" width="36" height="36" rx="18" fill="#E16A00"/>
<path d="M17.3165 12.5C20.2513 12.5 22.6331 14.8818 22.6331 17.8165C22.6331 20.7513 20.2513 23.1331 17.3165 23.1331C14.3818 23.1331 12 20.7513 12 17.8165C12 14.8818 14.3818 12.5 17.3165 12.5ZM17.3165 21.9516C19.6009 21.9516 21.4516 20.1009 21.4516 17.8165C21.4516 15.5316 19.6009 13.6815 17.3165 13.6815C15.0316 13.6815 13.1815 15.5316 13.1815 17.8165C13.1815 20.1009 15.0316 21.9516 17.3165 21.9516ZM22.3288 21.9936L24 23.6641L23.1641 24.5L21.4936 22.8288L22.3288 21.9936Z" fill="#FDFDFD"/>
</svg>
